<?xml version="1.0" encoding="utf-8"?>
<!-- Generator: Adobe Illustrator 26.0.1, SVG Export Plug-In . SVG Version: 6.00 Build 0)  -->
<svg version="1.1" id="Layer_1" xmlns="http://www.w3.org/2000/svg" xmlns:xlink="http://www.w3.org/1999/xlink" x="0px" y="0px"
	 viewBox="0 0 100 100" style="enable-background:new 0 0 100 100;" xml:space="preserve">
<style type="text/css">
	.st0{fill-rule:evenodd;clip-rule:evenodd;fill:#BDC3C7;}
	.st1{fill-rule:evenodd;clip-rule:evenodd;}
	.st2{fill-rule:evenodd;clip-rule:evenodd;fill:#191919;}
	.st3{fill:#AFB6BB;}
</style>
<path class="st0" d="M95,82.5H62c-8,0-16,0-24,0H5c-2.8,0-5-2.2-5-5v-9h100v9C100,80.3,97.8,82.5,95,82.5z"/>
<path class="st1" d="M5,3.5h90c2.8,0,5,2.2,5,5v60H0v-60C0,5.7,2.2,3.5,5,3.5z"/>
<path class="st2" d="M5,8.5h90v55H5V8.5z"/>
<circle class="st2" cx="50" cy="75.5" r="2"/>
<path class="st3" d="M63.3,96.5H36.7c-0.2,0-0.4-0.5-0.1-0.7l2.2-2.3c2.3-2.5,3.6-6.8,2.8-11.1l0,0h16.8l0,0
	c-0.7,4.2,0.5,8.6,2.8,11.1l2.2,2.3C63.7,96,63.6,96.5,63.3,96.5z"/>
</svg>
