<?xml version="1.0" encoding="utf-8"?>
<!-- Generator: Adobe Illustrator 26.0.1, SVG Export Plug-In . SVG Version: 6.00 Build 0)  -->
<svg version="1.1" id="Layer_1" xmlns="http://www.w3.org/2000/svg" xmlns:xlink="http://www.w3.org/1999/xlink" x="0px" y="0px"
	 viewBox="0 0 100.1 100" style="enable-background:new 0 0 100.1 100;" xml:space="preserve">
<style type="text/css">
	.st0{fill-rule:evenodd;clip-rule:evenodd;fill:#BDC3C7;}
	.st1{fill-rule:evenodd;clip-rule:evenodd;fill:#191919;}
</style>
<path class="st0" d="M25,0h50c2.8,0,5,2.2,5,5v90c0,2.8-2.2,5-5,5H25c-2.8,0-5-2.2-5-5V5C20,2.2,22.2,0,25,0z"/>
<path class="st1" d="M25,11h50v73H25V11z M50,88c1.9,0,3.5,1.6,3.5,3.5S51.9,95,50,95c-1.9,0-3.5-1.6-3.5-3.5S48.1,88,50,88z"/>
</svg>
