<?xml version="1.0" encoding="utf-8"?>
<!-- Generator: Adobe Illustrator 26.0.1, SVG Export Plug-In . SVG Version: 6.00 Build 0)  -->
<svg version="1.1" id="Layer_1" xmlns="http://www.w3.org/2000/svg" xmlns:xlink="http://www.w3.org/1999/xlink" x="0px" y="0px"
	 viewBox="0 0 91.1 122.9" style="enable-background:new 0 0 91.1 122.9;" xml:space="preserve">
<style type="text/css">
	.st0{fill:#FFFFFF;}
</style>
<g>
	<path class="st0" d="M58.7,85H27.4v-3.1c0-5.3,0.6-9.7,1.8-13c1.2-3.3,3-6.4,5.4-9.1c2.4-2.8,7.8-7.6,16.1-14.5
		c4.5-3.6,6.7-7,6.7-10c0-3-0.9-5.4-2.7-7.1c-1.8-1.7-4.5-2.5-8.1-2.5c-3.9,0-7.1,1.3-9.7,3.9c-2.6,2.6-4.2,7.1-4.9,13.5l-32-4
		c1.1-11.8,5.4-21.2,12.8-28.4C20.2,3.6,31.7,0,47.1,0c12,0,21.6,2.5,29,7.5c10,6.8,15,15.8,15,27c0,4.7-1.3,9.2-3.9,13.5
		c-2.6,4.3-7.8,9.6-15.8,15.9c-5.5,4.4-9.1,7.9-10.5,10.6C59.4,77.2,58.7,80.7,58.7,85L58.7,85z M26.3,93.3h33.6v29.6H26.3V93.3
		L26.3,93.3z"/>
</g>
</svg>
