<?xml version="1.0" encoding="utf-8"?>
<!-- Generator: Adobe Illustrator 26.0.1, SVG Export Plug-In . SVG Version: 6.00 Build 0)  -->
<svg version="1.1" id="Layer_1" xmlns="http://www.w3.org/2000/svg" xmlns:xlink="http://www.w3.org/1999/xlink" x="0px" y="0px"
	 viewBox="0 0 48 48" style="enable-background:new 0 0 48 48;" xml:space="preserve">
<style type="text/css">
	.st0{fill:none;}
	.st1{fill:#666666;}
</style>
<g>
	<path class="st0" d="M6.4,47.3V8h39.2v39.2H6.4z"/>
	<g>
		<path class="st1" d="M24,0C10.7,0,0,10.8,0,24s10.8,24,24,24s24-10.8,24-24S37.2,0,24,0z M26.4,40.8h-4.8V36h4.8V40.8z M31.3,22.2
			l-2.2,2.2c-1.7,1.8-2.8,3.2-2.8,6.8h-4.8V30c0-2.6,1.1-5,2.8-6.8l3-3c0.9-0.9,1.4-2.1,1.4-3.4c0-2.6-2.2-4.8-4.8-4.8
			s-4.8,2.2-4.8,4.8h-4.8c0-5.3,4.3-9.6,9.6-9.6s9.6,4.3,9.6,9.6C33.6,18.9,32.7,20.8,31.3,22.2z"/>
	</g>
</g>
</svg>
