<?xml version="1.0" encoding="utf-8"?>
<!-- Generator: Adobe Illustrator 26.0.1, SVG Export Plug-In . SVG Version: 6.00 Build 0)  -->
<svg version="1.1" id="Layer_1" xmlns="http://www.w3.org/2000/svg" xmlns:xlink="http://www.w3.org/1999/xlink" x="0px" y="0px"
	 viewBox="0 0 48 48" style="enable-background:new 0 0 48 48;" xml:space="preserve">
<style type="text/css">
	.st0{fill:none;}
	.st1{fill:#A8A8A8;}
	.st2{fill:#FFFFFF;}
</style>
<g>
	<path class="st0" d="M6.4,47.3V8h39.2v39.2L6.4,47.3L6.4,47.3z"/>
</g>
<g>
	<path class="st1" d="M24,0C10.7,0,0,10.8,0,24s10.8,24,24,24s24-10.8,24-24S37.2,0,24,0z"/>
</g>
<g>
	<path class="st2" d="M26.6,28.6h-6.1V28c0-1,0.1-1.9,0.3-2.5c0.2-0.6,0.6-1.2,1-1.8c0.5-0.5,1.5-1.5,3.1-2.8
		c0.9-0.7,1.3-1.4,1.3-1.9s-0.2-1-0.5-1.4c-0.3-0.3-0.9-0.5-1.6-0.5c-0.8,0-1.4,0.3-1.9,0.8c-0.5,0.5-0.8,1.4-1,2.6l-6.2-0.8
		c0.2-2.3,1-4.1,2.5-5.5c1.4-1.4,3.7-2.1,6.7-2.1c2.3,0,4.2,0.5,5.6,1.5c1.9,1.3,2.9,3.1,2.9,5.2c0,0.9-0.3,1.8-0.8,2.6
		c-0.5,0.8-1.5,1.9-3.1,3.1c-1.1,0.9-1.8,1.5-2,2.1C26.7,27.1,26.6,27.7,26.6,28.6L26.6,28.6z M20.3,30.2h6.5v5.7h-6.5V30.2
		L20.3,30.2z"/>
</g>
</svg>
